<?xml version="1.0" standalone="no"?><!DOCTYPE svg PUBLIC "-//W3C//DTD SVG 1.1//EN" "http://www.w3.org/Graphics/SVG/1.1/DTD/svg11.dtd"><svg t="1605443222279" class="icon" viewBox="0 0 1024 1024" version="1.1" xmlns="http://www.w3.org/2000/svg" p-id="1750" xmlns:xlink="http://www.w3.org/1999/xlink" width="200" height="200"><defs><style type="text/css"></style></defs><path d="M683.295006 806.948064l-47.279703-27.476967 2.160055-1.247733 47.279702 27.476966-2.160054 1.247734zM675.352445 640.6507l-47.279702-27.476967 7.459567-4.306692 47.279702 27.476966-7.459567 4.306693zM425.228866 930.741995l-47.279702-27.476967 29.569939-17.065772 47.279702 27.476966-29.569939 17.065773z" fill="#DB0000" p-id="1751"></path><path d="M399.227713 935.129186L351.907762 907.692469l0.120748 0.067082 47.279702 27.476967-0.120748-0.067082" fill="#9E0000" p-id="1752"></path><path d="M399.348462 935.236518L352.068759 907.759551a11.793093 11.793093 0 0 0 1.180651 0.53666l47.279703 27.46355a9.391541 9.391541 0 0 1-1.167235-0.563492" fill="#A30000" p-id="1753"></path><path d="M400.515696 935.80001L353.24941 908.296211l0.670825 0.254913 0.76474 0.241497 47.266285 27.46355-0.751323-0.22808-0.670824-0.26833" fill="#A80000" p-id="1754"></path><path d="M401.937844 936.296421L354.671558 908.83287c0.53666 0.147581 1.100152 0.281746 1.690478 0.389079l47.279702 27.476966a16.623028 16.623028 0 0 1-1.703894-0.402494" fill="#AD0000" p-id="1755"></path><path d="M403.641738 936.698915l-47.279702-27.476966c0.590325 0.093915 1.207484 0.174414 1.838058 0.214663l47.279703 27.476967c-0.630575 0-1.247733-0.120748-1.838059-0.214664" fill="#B30000" p-id="1756"></path><path d="M405.479797 936.913579l-47.279703-27.476967h2.092972l47.279703 27.476967h-2.092972" fill="#B80000" p-id="1757"></path><path d="M407.572769 936.926995l-47.279703-27.476966a23.009276 23.009276 0 0 0 2.468634-0.254913l47.279702 27.476966a23.009276 23.009276 0 0 1-2.468633 0.254913" fill="#BD0000" p-id="1758"></path><path d="M410.041402 936.672082l-47.279702-27.476966a26.980557 26.980557 0 0 0 3.179708-0.670825l47.279702 27.476967a26.980557 26.980557 0 0 1-3.179708 0.670824" fill="#C20000" p-id="1759"></path><path d="M413.22111 936.001258l-47.279702-27.476967a40.732456 40.732456 0 0 0 4.749436-1.650228l47.279703 27.476967a40.732456 40.732456 0 0 1-4.789686 1.650228" fill="#C70000" p-id="1760"></path><path d="M418.010796 934.35103L370.690844 906.874063a62.346418 62.346418 0 0 0 7.218071-3.609035l47.279702 27.476967a62.346418 62.346418 0 0 1-7.21807 3.609035" fill="#CC0000" p-id="1761"></path><path d="M336.841046 981.764897l-47.279702-27.46355a86.871757 86.871757 0 0 0 17.629264-13.02741l47.279703 27.476967a86.844924 86.844924 0 0 1-17.629265 13.013993" fill="#CC0000" p-id="1762"></path><path d="M354.470311 968.750904l-47.279703-27.476967c1.059903-1.046486 2.039306-2.106389 2.978461-3.166291l47.279702 27.476967c-0.939154 1.059903-1.918558 2.119805-2.97846 3.166291" fill="#C70000" p-id="1763"></path><path d="M357.448771 965.584613l-47.279702-27.476967c0.630575-0.737907 1.234317-1.475814 1.824642-2.227137L359.273413 963.30381c-0.590325 0.751323-1.194067 1.48923-1.824642 2.227137" fill="#C20000" p-id="1764"></path><path d="M359.273413 963.30381l-47.279702-27.423301c0.456161-0.590325 0.898905-1.180651 1.341649-1.784392l47.279702 27.476966c-0.415911 0.603742-0.858655 1.194067-1.341649 1.784393" fill="#BD0000" p-id="1765"></path><path d="M360.588229 961.573083l-47.279702-27.476966c0.375662-0.523243 0.72449-1.059903 1.059902-1.583146l47.279703 27.46355c-0.335412 0.53666-0.684241 1.073319-1.059903 1.596562" fill="#B80000" p-id="1766"></path><path d="M361.648132 959.976521L314.341596 932.512971q0.456161-0.72449 0.885489-1.448981l47.279702 27.476967c-0.281746 0.482994-0.576909 0.965987-0.885488 1.435564" fill="#B30000" p-id="1767"></path><path d="M362.53362 958.540957L315.253918 931.10424l0.147581-0.241497 0.804989-1.448981 47.279702 27.476967-0.804989 1.448981-0.147581 0.241496" fill="#AD0000" p-id="1768"></path><path d="M363.48619 956.85048l-47.279702-27.476967c0.308579-0.603742 0.617158-1.194067 0.912321-1.811226l47.279703 27.476967c-0.295163 0.617158-0.603742 1.207484-0.912322 1.811226" fill="#A80000" p-id="1769"></path><path d="M364.398512 955.039254l-47.279703-27.476967c0.295163-0.617158 0.576909-1.247733 0.858655-1.878308L365.324249 953.147529c-0.281746 0.643991-0.563492 1.341649-0.858655 1.891725" fill="#A30000" p-id="1770"></path><path d="M365.324249 953.147529L317.977464 925.737645q0.442744-1.019653 0.845239-2.052723l47.279703 27.476967c-0.26833 0.684241-0.550076 1.341649-0.845239 2.039306" fill="#9E0000" p-id="1771"></path><path d="M366.102406 951.108223l-47.279703-27.476967c0.281746-0.751323 0.550076-1.516063 0.818406-2.280803l47.279702 27.476967c-0.26833 0.76474-0.53666 1.52948-0.818405 2.280803" fill="#990000" p-id="1772"></path><path d="M366.920811 948.82742L319.708191 921.350453c0.295163-0.898905 0.563492-1.797809 0.818406-2.683297l47.21262 27.450133c-0.254913 0.912321-0.523243 1.811226-0.818406 2.683298" fill="#940000" p-id="1773"></path><path d="M367.739217 946.117289l-47.279702-27.476966c0.308579-1.113568 0.590325-2.25397 0.831822-3.407788l47.279702 27.476967c-0.241497 1.153818-0.523243 2.294219-0.831822 3.407787" fill="#8F0000" p-id="1774"></path><path d="M368.571039 942.709502l-47.279702-27.476967c0.348829-1.623395 0.630575-3.287039 0.858655-4.990933l47.279702 27.46355c-0.22808 1.703894-0.509827 3.380955-0.858655 5.00435" fill="#8A0000" p-id="1775"></path><path d="M369.429694 937.705152l-47.279702-27.46355a70.812222 70.812222 0 0 0 0.563493-9.391542L369.993187 928.420942a70.476809 70.476809 0 0 1-0.563493 9.391542" fill="#850000" p-id="1776"></path><path d="M307.33819 1024L260.058488 996.523033l-0.067083-25.155914 47.279702 27.476967 0.067083 25.155914z" fill="#880000" p-id="1777"></path><path d="M307.271107 998.844086L259.991405 971.367119l29.569939-17.065772 47.279702 27.46355-29.569939 17.079189z" fill="#DB0000" p-id="1778"></path><path d="M682.812012 636.344007l-47.279702-27.476966-1.422148-500.58257 47.279702 27.476967 1.422148 500.582569z" fill="#880000" p-id="1779"></path><path d="M681.389864 135.761438l-47.279702-27.476967c0-11.417431-2.5223-18.528169-7.459567-21.399297L673.903464 114.36214c4.937267 2.871128 7.432734 9.981867 7.459567 21.466381" fill="#850000" p-id="1780"></path><path d="M618.479954 137.800744l-47.279702-27.476966-0.067083-25.155915 47.279702 27.476967 0.067083 25.155914z" fill="#880000" p-id="1781"></path><path d="M618.412871 112.64483L571.133169 85.167863 718.64745 0l47.279703 27.476967-147.514282 85.167863z" fill="#DB0000" p-id="1782"></path><path d="M685.45506 805.70033l-47.279702-27.476966L350.431948 306.352078l47.279702 27.476967 287.74341 471.871285z" fill="#800000" p-id="1783"></path><path d="M369.993187 928.35386l-47.279702-27.476967-1.730727-611.805251 47.279702 27.476967 1.730727 611.805251z" fill="#880000" p-id="1784"></path><path d="M368.26246 316.548609L321.04984 289.071642q0-16.099785-7.432734-20.312562l47.21262 27.476966q7.379068 4.27986 7.432734 20.312563" fill="#850000" p-id="1785"></path><path d="M305.339133 318.587915L258.059431 291.110948 257.992348 265.96845l47.279703 27.476967 0.067082 25.142498z" fill="#880000" p-id="1786"></path><path d="M765.927153 27.476967l0.080499 25.142497-29.516273 17.065773a70.973219 70.973219 0 0 0-23.98868 22.432367 54.564855 54.564855 0 0 0-9.163461 30.965253L705.190713 794.256066 683.295006 806.948064l2.160054-1.247734-287.74341-471.871285-7.459567 4.266443 1.636812 577.579791q0 17.119438 9.297626 20.352812t24.042345-5.366595l29.516273-17.065773 0.067083 25.155915-147.581364 85.167863-0.067083-25.155914 29.516273-17.079189q18.608668-10.558776 25.960904-23.384938T369.993187 928.420942l-1.730727-611.791835c0-11.417431-2.857712-18.340339-8.452387-20.835805s-15.375295 0.308579-29.328442 8.358472l-25.142498 14.436141v-25.155915l117.085688-67.592264 252.927624 414.810964 7.459567-4.306693-1.422148-500.582569c0-11.417431-2.5223-18.528169-7.459567-21.46638s-13.564069-0.737907-25.893821 6.372832l-29.516273 17.065772-0.107332-25.035166z" fill="#FFCC00" p-id="1787"></path><path d="M305.272051 293.445417L257.992348 265.96845l117.085688-67.605681 47.279702 27.476967-117.085687 67.605681z" fill="#DB0000" p-id="1788"></path></svg>